<svg aria-hidden="true" style="position: absolute; width: 0; height: 0; overflow: hidden;" version="1.1" xmlns="http://www.w3.org/2000/svg" xmlns:xlink="http://www.w3.org/1999/xlink">
<defs>
<symbol id="icon-exit" viewBox="0 0 32 32">
<path d="M18.828 16l12.586-12.586c0.781-0.781 0.781-2.047 0-2.828s-2.047-0.781-2.828 0l-12.586 12.586-12.586-12.586c-0.781-0.781-2.047-0.781-2.829 0s-0.781 2.047 0 2.828l12.586 12.586-12.586 12.586c-0.781 0.781-0.781 2.047 0 2.828 0.391 0.391 0.903 0.586 1.414 0.586s1.024-0.196 1.415-0.586l12.586-12.586 12.586 12.586c0.391 0.391 0.903 0.586 1.414 0.586s1.024-0.196 1.414-0.586c0.781-0.781 0.781-2.047 0-2.828l-12.586-12.586z"></path>
</symbol>
</defs>
</svg>
